# Blender 4.0.2
# www.blender.org
mtllib building9.mtl
o Highrise_9
v -99.987717 5.939178 -98.718483
v -99.987717 205.939178 -98.718498
v 100.012283 5.939178 -98.718483
v 100.012283 205.939178 -98.718498
v 100.012283 5.939178 101.281517
v 100.012283 205.939178 101.281502
v -99.987717 5.939178 101.281517
v -99.987717 205.939178 101.281502
v -93.787643 12.139175 -98.718483
v -93.787643 199.739166 -98.718498
v 93.812332 12.139175 -98.718483
v 93.812332 199.739166 -98.718498
v 100.012283 12.139175 -92.518478
v 100.012283 199.739166 -92.518494
v 100.012283 12.139175 95.081520
v 100.012283 199.739166 95.081505
v 93.812332 12.139175 101.281517
v 93.812332 199.739166 101.281502
v -93.787643 12.139175 101.281517
v -93.787643 199.739166 101.281502
v -99.987717 12.139175 -92.518478
v -99.987717 199.739166 -92.518494
v -99.987717 12.139175 95.081520
v -99.987717 199.739166 95.081505
v -93.787643 12.139160 -102.218483
v -93.787643 199.739166 -102.218498
v 93.812332 12.139160 -102.218483
v 93.812332 199.739166 -102.218498
v 103.512283 12.139175 -92.518478
v 103.512283 199.739166 -92.518494
v 103.512283 12.139175 95.081520
v 103.512283 199.739166 95.081505
v 93.812332 12.139191 104.781517
v 93.812332 199.739166 104.781502
v -93.787643 12.139191 104.781517
v -93.787643 199.739166 104.781502
v -103.487717 12.139175 -92.518478
v -103.487717 199.739166 -92.518494
v -103.487717 12.139175 95.081520
v -103.487717 199.739166 95.081505
v -96.987717 205.939178 -95.718498
v 97.012283 205.939178 -95.718498
v 97.012283 205.939178 98.281502
v -96.987717 205.939178 98.281502
v -96.987717 257.039154 -95.718498
v 97.012283 257.039154 -95.718498
v 97.012283 257.039185 98.281502
v -96.987717 257.039185 98.281502
v -89.987717 257.039154 -88.718498
v 90.012283 257.039154 -88.718498
v 90.012283 257.039185 91.281502
v -89.987717 257.039185 91.281502
v -89.987717 230.339172 -88.718498
v 90.012283 230.339172 -88.718498
v 90.012283 230.339172 91.281502
v -89.987717 230.339172 91.281502
v -78.287643 230.339172 -77.018494
v 78.312332 230.339172 -77.018494
v 78.312332 230.339172 79.581505
v -78.287643 230.339172 79.581505
v -78.287643 292.639160 -77.018501
v 78.312332 292.639160 -77.018501
v 78.312332 292.639160 79.581497
v -78.287643 292.639160 79.581497
v -72.387619 292.639160 -71.118507
v 72.412308 292.639160 -71.118507
v 72.412308 292.639160 73.681503
v -72.387619 292.639160 73.681503
v -72.387619 272.239166 -71.118500
v 72.412308 272.239166 -71.118500
v 72.412308 272.239166 73.681511
v -72.387619 272.239166 73.681511
v -63.887615 272.239166 -62.618496
v 63.912312 272.239166 -62.618496
v 63.912312 272.239166 65.181511
v -63.887615 272.239166 65.181511
v -63.887615 338.139160 -62.618500
v 63.912312 338.139160 -62.618500
v 63.912312 338.139160 65.181503
v -63.887615 338.139160 65.181503
v -13.787640 388.239166 -12.518502
v -13.787640 388.239166 15.081496
v 13.812336 388.239166 15.081496
v 13.812336 388.239166 -12.518502
v -13.787640 429.039185 -12.518505
v -13.787640 429.039185 15.081493
v 13.812336 429.039185 15.081493
v 13.812336 429.039185 -12.518505
v -5.987713 429.039185 -4.718510
v -5.987713 429.039185 7.281490
v 6.012287 429.039185 7.281490
v 6.012287 429.039185 -4.718510
v -5.987713 474.839172 -4.718513
v -5.987713 474.839172 7.281487
v 6.012287 474.839172 7.281487
v 6.012287 474.839172 -4.718513
v -5.987713 475.039185 -4.718513
v -5.987713 475.039185 7.281487
v 6.012287 475.039185 7.281487
v 6.012287 475.039185 -4.718513
vn -0.0000 -0.0000 -1.0000
vn 1.0000 -0.0000 -0.0000
vn -0.0000 -0.0000 1.0000
vn -1.0000 -0.0000 -0.0000
vn -0.0000 1.0000 -0.0000
vn -0.0000 -1.0000 -0.0000
vn -0.7071 0.7071 -0.0000
vn -0.0000 0.7071 0.7071
vn 0.7071 0.7071 -0.0000
vn -0.0000 0.7071 -0.7071
vt 0.031000 0.031000
vt 0.031000 0.969000
vt 0.969000 0.969000
vt 0.969000 0.031000
vt 0.470000 0.470000
vt 0.470000 0.530000
vt 0.530000 0.530000
vt 0.530000 0.470000
vt 0.000000 0.000000
vt 0.000000 1.000000
vt 1.000000 1.000000
vt 1.000000 0.000000
vt 0.015000 0.015000
vt 0.985000 0.015000
vt 0.985000 0.985000
vt 0.015000 0.985000
vt 0.050000 0.050000
vt 0.950000 0.050000
vt 0.950000 0.950000
vt 0.050000 0.950000
vt 0.108500 0.108500
vt 0.891500 0.108500
vt 0.891500 0.891500
vt 0.108500 0.891500
vt 0.138000 0.138000
vt 0.862000 0.138000
vt 0.862000 0.862000
vt 0.138000 0.862000
vt 0.180500 0.180500
vt 0.819500 0.180500
vt 0.819500 0.819500
vt 0.180500 0.819500
vt 0.431000 0.569000
vt 0.431000 0.431000
vt 0.569000 0.569000
vt 0.569000 0.431000
s 0
usemtl default
f 25/1/1 26/2/1 28/3/1 27/4/1
f 29/1/2 30/2/2 32/3/2 31/4/2
f 33/1/3 34/2/3 36/3/3 35/4/3
f 39/1/4 40/2/4 38/3/4 37/4/4
f 97/5/5 98/6/5 99/7/5 100/8/5
f 7/9/6 1/10/6 3/11/6 5/12/6
f 1/9/1 9/1/1 11/4/1 3/12/1
f 3/12/1 11/4/1 12/3/1 4/11/1
f 4/11/1 12/3/1 10/2/1 2/10/1
f 2/10/1 10/2/1 9/1/1 1/9/1
f 3/9/2 13/1/2 15/4/2 5/12/2
f 5/12/2 15/4/2 16/3/2 6/11/2
f 6/11/2 16/3/2 14/2/2 4/10/2
f 4/10/2 14/2/2 13/1/2 3/9/2
f 5/9/3 17/1/3 19/4/3 7/12/3
f 7/12/3 19/4/3 20/3/3 8/11/3
f 8/11/3 20/3/3 18/2/3 6/10/3
f 6/10/3 18/2/3 17/1/3 5/9/3
f 7/9/4 23/1/4 21/4/4 1/12/4
f 1/12/4 21/4/4 22/3/4 2/11/4
f 2/11/4 22/3/4 24/2/4 8/10/4
f 8/10/4 24/2/4 23/1/4 7/9/4
f 9/1/6 25/1/6 27/4/6 11/4/6
f 11/4/2 27/4/2 28/3/2 12/3/2
f 12/3/5 28/3/5 26/2/5 10/2/5
f 10/2/4 26/2/4 25/1/4 9/1/4
f 13/1/6 29/1/6 31/4/6 15/4/6
f 15/4/3 31/4/3 32/3/3 16/3/3
f 16/3/5 32/3/5 30/2/5 14/2/5
f 14/2/1 30/2/1 29/1/1 13/1/1
f 17/1/6 33/1/6 35/4/6 19/4/6
f 19/4/4 35/4/4 36/3/4 20/3/4
f 20/3/5 36/3/5 34/2/5 18/2/5
f 18/2/2 34/2/2 33/1/2 17/1/2
f 23/1/6 39/1/6 37/4/6 21/4/6
f 21/4/1 37/4/1 38/3/1 22/3/1
f 22/3/5 38/3/5 40/2/5 24/2/5
f 24/2/3 40/2/3 39/1/3 23/1/3
f 2/9/5 41/13/5 42/14/5 4/12/5
f 4/12/5 42/14/5 43/15/5 6/11/5
f 6/11/5 43/15/5 44/16/5 8/10/5
f 8/10/5 44/16/5 41/13/5 2/9/5
f 41/13/1 45/13/1 46/14/1 42/14/1
f 42/14/2 46/14/2 47/15/2 43/15/2
f 43/15/3 47/15/3 48/16/3 44/16/3
f 44/16/4 48/16/4 45/13/4 41/13/4
f 45/13/5 49/17/5 50/18/5 46/14/5
f 46/14/5 50/18/5 51/19/5 47/15/5
f 47/15/5 51/19/5 52/20/5 48/16/5
f 48/16/5 52/20/5 49/17/5 45/13/5
f 49/17/3 53/17/3 54/18/3 50/18/3
f 50/18/4 54/18/4 55/19/4 51/19/4
f 51/19/1 55/19/1 56/20/1 52/20/1
f 52/20/2 56/20/2 53/17/2 49/17/2
f 53/17/5 57/21/5 58/22/5 54/18/5
f 54/18/5 58/22/5 59/23/5 55/19/5
f 55/19/5 59/23/5 60/24/5 56/20/5
f 56/20/5 60/24/5 57/21/5 53/17/5
f 57/21/1 61/21/1 62/22/1 58/22/1
f 58/22/2 62/22/2 63/23/2 59/23/2
f 59/23/3 63/23/3 64/24/3 60/24/3
f 60/24/4 64/24/4 61/21/4 57/21/4
f 61/21/5 65/25/5 66/26/5 62/22/5
f 62/22/5 66/26/5 67/27/5 63/23/5
f 63/23/5 67/27/5 68/28/5 64/24/5
f 64/24/5 68/28/5 65/25/5 61/21/5
f 65/25/3 69/25/3 70/26/3 66/26/3
f 66/26/4 70/26/4 71/27/4 67/27/4
f 67/27/1 71/27/1 72/28/1 68/28/1
f 68/28/2 72/28/2 69/25/2 65/25/2
f 69/25/5 73/29/5 74/30/5 70/26/5
f 70/26/5 74/30/5 75/31/5 71/27/5
f 71/27/5 75/31/5 76/32/5 72/28/5
f 72/28/5 76/32/5 73/29/5 69/25/5
f 73/29/1 77/29/1 78/30/1 74/30/1
f 74/30/2 78/30/2 79/31/2 75/31/2
f 75/31/3 79/31/3 80/32/3 76/32/3
f 76/32/4 80/32/4 77/29/4 73/29/4
f 80/32/7 82/33/7 81/34/7 77/29/7
f 79/31/8 83/35/8 82/33/8 80/32/8
f 78/30/9 84/36/9 83/35/9 79/31/9
f 77/29/10 81/34/10 84/36/10 78/30/10
f 81/34/1 85/34/1 88/36/1 84/36/1
f 84/36/2 88/36/2 87/35/2 83/35/2
f 83/35/3 87/35/3 86/33/3 82/33/3
f 82/33/4 86/33/4 85/34/4 81/34/4
f 85/34/5 89/5/5 92/8/5 88/36/5
f 88/36/5 92/8/5 91/7/5 87/35/5
f 87/35/5 91/7/5 90/6/5 86/33/5
f 86/33/5 90/6/5 89/5/5 85/34/5
f 89/5/1 93/5/1 96/8/1 92/8/1
f 92/8/2 96/8/2 95/7/2 91/7/2
f 91/7/3 95/7/3 94/6/3 90/6/3
f 90/6/4 94/6/4 93/5/4 89/5/4
f 93/5/1 97/5/1 100/8/1 96/8/1
f 96/8/2 100/8/2 99/7/2 95/7/2
f 95/7/3 99/7/3 98/6/3 94/6/3
f 94/6/4 98/6/4 97/5/4 93/5/4
