# Blender 4.0.2
# www.blender.org
mtllib building5.mtl
o Highrise_5
v 69.073853 0.994324 -37.777649
v 69.073853 381.340637 -37.777664
v 69.073853 0.994324 -19.321875
v 69.073853 381.340637 -19.321892
v 69.073853 0.994324 -0.866100
v 69.073853 381.340637 -0.866117
v 69.073853 0.994324 17.589676
v 69.073853 381.340637 17.589659
v 69.073853 0.994324 36.045448
v 69.073853 381.340637 36.045437
v 33.485962 0.994324 36.045448
v 33.485962 381.340637 36.045437
v -2.101807 0.994324 36.045448
v -2.101807 381.340637 36.045429
v -37.689636 0.994324 36.045448
v -37.689636 381.340637 36.045429
v -73.277466 0.994324 36.045448
v -73.277466 381.340637 36.045429
v -73.277466 0.994324 17.589672
v -73.277466 381.340637 17.589655
v -73.277466 0.994324 -0.866104
v -73.277466 381.340637 -0.866121
v -73.277466 0.994324 -19.321878
v -73.277466 381.340637 -19.321896
v -73.277466 0.994324 -37.777653
v -73.277466 381.340637 -37.777668
v -37.689636 0.994324 -37.777653
v -37.689636 381.340637 -37.777668
v -2.101807 0.994324 -37.777649
v -2.101807 381.340637 -37.777664
v 33.485962 0.994324 -37.777649
v 33.485962 381.340637 -37.777664
v 33.485962 397.040649 -19.321892
v -2.101807 397.040649 -19.321892
v -37.689636 397.040649 -19.321894
v 33.485962 397.040649 -0.866118
v -2.101807 397.040649 -0.866118
v -37.689636 397.040649 -0.866118
v 33.485962 397.040649 17.589659
v -2.101807 397.040649 17.589655
v -37.689636 397.040649 17.589655
v -37.689636 0.994324 -19.321877
v -2.101807 0.994324 -19.321877
v 33.485962 0.994324 -19.321875
v -37.689636 0.994324 -0.866100
v -2.101807 0.994324 -0.866100
v 33.485962 0.994324 -0.866100
v -37.689636 0.994324 17.589672
v -2.101807 0.994324 17.589672
v 33.485962 0.994324 17.589676
v 69.073853 384.040649 -37.777664
v 69.073853 384.040649 -19.321892
v 69.073853 384.040649 -0.866117
v 69.073853 384.040649 17.589659
v 69.073853 384.040649 36.045437
v 33.485962 384.040649 36.045437
v -2.101807 384.040649 36.045429
v -37.689636 384.040649 36.045429
v -73.277466 384.040649 36.045429
v -73.277466 384.040649 17.589655
v -73.277466 384.040649 -0.866121
v -73.277466 384.040649 -19.321896
v -73.277466 384.040649 -37.777668
v -37.689636 384.040649 -37.777668
v -2.101807 384.040649 -37.777664
v 33.485962 384.040649 -37.777664
v 69.073853 402.240631 -37.777668
v 69.073853 402.240631 -19.321892
v 69.073853 402.240631 -0.866119
v 69.073853 402.240631 17.589657
v 69.073853 402.240631 36.045433
v 33.485962 402.240631 36.045433
v -2.101807 402.240631 36.045433
v -37.689636 402.240631 36.045425
v -73.277466 402.240631 36.045425
v -73.277466 402.240631 17.589653
v -73.277466 402.240631 -0.866123
v -73.277466 402.240631 -19.321896
v -73.277466 402.240631 -37.777672
v -37.689636 402.240631 -37.777668
v -2.101807 402.240631 -37.777668
v 33.485962 402.240631 -37.777668
v 62.973877 402.240631 -34.255714
v 62.973877 402.240631 -19.321892
v 62.973877 402.240631 -0.866119
v 62.973877 402.240631 17.589657
v 62.973877 402.240631 32.523476
v 33.485962 402.240631 32.523476
v -2.101807 402.240631 32.523476
v -37.689636 402.240631 32.523476
v -67.177490 402.240631 32.523476
v -67.177490 402.240631 17.589653
v -67.177490 402.240631 -0.866119
v -67.177490 402.240631 -19.321896
v -67.177490 402.240631 -34.255718
v -37.689636 402.240631 -34.255714
v -2.101807 402.240631 -34.255714
v 33.485962 402.240631 -34.255714
v 62.973877 397.040649 -34.255714
v 62.973877 397.040649 -19.321890
v 62.973877 397.040649 -0.866118
v 62.973877 397.040649 17.589659
v 62.973877 397.040649 32.523476
v 33.485962 397.040649 32.523476
v -2.101807 397.040649 32.523476
v -37.689636 397.040649 32.523476
v -67.177490 397.040649 32.523476
v -67.177490 397.040649 17.589655
v -67.177490 397.040649 -0.866122
v -67.177490 397.040649 -19.321894
v -67.177490 397.040649 -34.255718
v -37.689636 397.040649 -34.255714
v -2.101807 397.040649 -34.255714
v 33.485962 397.040649 -34.255714
v 55.873901 381.340637 -30.156389
v 55.873901 381.340637 -19.321892
v 55.873901 381.340637 -0.866117
v 55.873901 381.340637 17.589659
v 55.873901 381.340637 28.424158
v 33.485962 381.340637 28.424158
v -2.101807 381.340637 28.424150
v -37.689636 381.340637 28.424150
v -60.077454 381.340637 28.424150
v -60.077454 381.340637 17.589655
v -60.077454 381.340637 -0.866121
v -60.077454 381.340637 -19.321894
v -60.077454 381.340637 -30.156393
v -37.689636 381.340637 -30.156393
v -2.101807 381.340637 -30.156391
v 33.485962 381.340637 -30.156389
v 55.873901 384.040649 -30.156389
v 55.873901 384.040649 -19.321892
v 55.873901 384.040649 -0.866117
v 55.873901 384.040649 17.589659
v 55.873901 384.040649 28.424158
v 33.485962 384.040649 28.424158
v -2.101807 384.040649 28.424158
v -37.689636 384.040649 28.424150
v -60.077454 384.040649 28.424150
v -60.077454 384.040649 17.589655
v -60.077454 384.040649 -0.866121
v -60.077454 384.040649 -19.321894
v -60.077454 384.040649 -30.156393
v -37.689636 384.040649 -30.156393
v -2.101807 384.040649 -30.156391
v 33.485962 384.040649 -30.156389
v 72.173828 0.994324 -39.567493
v 72.173828 381.340637 -39.567509
v 72.173828 0.994324 -19.321875
v 72.173828 381.340637 -19.321892
v 33.485962 0.994324 -39.567493
v 33.485962 381.340637 -39.567509
v 72.173828 0.994324 17.589676
v 72.173828 381.340637 17.589659
v 72.173828 0.994324 37.835297
v 72.173828 381.340637 37.835278
v 33.485962 0.994324 37.835297
v 33.485962 381.340637 37.835278
v -37.689636 0.994324 37.835289
v -37.689636 381.340637 37.835278
v -76.377502 0.994324 37.835289
v -76.377502 381.340637 37.835278
v -76.377502 0.994324 17.589672
v -76.377502 381.340637 17.589655
v -76.377502 0.994324 -19.321878
v -76.377502 381.340637 -19.321896
v -76.377502 0.994324 -39.567497
v -76.377502 381.340637 -39.567513
v -37.689636 0.994324 -39.567497
v -37.689636 381.340637 -39.567513
v 33.485962 400.640656 -19.321894
v -2.101807 400.640656 -19.321894
v 33.485962 400.640625 -0.866119
v -2.101807 400.640625 -0.866119
v 33.485962 400.640625 17.589657
v -2.101807 400.640625 17.589657
v 33.485962 411.840637 -0.866120
v -2.101807 411.840637 -0.866120
v 33.485962 411.840637 17.589657
v -2.101807 411.840637 17.589657
v 20.378052 411.840637 4.433880
v 11.006104 411.840637 4.433880
v 20.378052 411.840637 12.289658
v 11.006104 411.840637 12.289654
v 20.378052 456.940643 4.433880
v 11.006104 456.940643 4.433880
v 20.378052 456.940643 12.289654
v 11.006104 456.940643 12.289654
v 18.378052 456.940643 6.433880
v 13.006104 456.940643 6.433880
v 18.378052 456.940643 10.289654
v 13.006104 456.940643 10.289654
v 18.378052 518.240662 6.433876
v 13.006104 518.240662 6.433876
v 18.378052 518.240662 10.289649
v 13.006104 518.240662 10.289649
v -31.389648 7.294312 -37.777649
v -31.389648 375.040649 -37.777668
v -2.101807 7.294312 -37.777649
v -2.101807 375.040649 -37.777664
v 27.186035 7.294312 -37.777649
v 27.186035 375.040649 -37.777664
v -31.389648 7.294312 -32.477650
v -31.389648 375.040649 -32.477665
v -2.101807 7.294312 -32.477650
v -2.101807 375.040649 -32.477665
v 27.186035 7.294312 -32.477650
v 27.186035 375.040649 -32.477665
v 27.985962 6.494324 36.045448
v 27.985962 375.840637 36.045437
v -2.101807 6.494324 36.045448
v -2.101807 375.840637 36.045429
v -32.189636 6.494324 36.045448
v -32.189636 375.840637 36.045429
v 27.985962 6.494324 31.745453
v 27.985962 375.840637 31.745432
v -2.101807 6.494324 31.745445
v -2.101807 375.840637 31.745432
v -32.189636 6.494324 31.745445
v -32.189636 375.840637 31.745432
vn 1.0000 -0.0000 -0.0000
vn -0.0000 -0.0000 1.0000
vn -1.0000 -0.0000 -0.0000
vn -0.0000 -0.0000 -1.0000
vn -0.0000 1.0000 -0.0000
vn -0.0000 -1.0000 -0.0000
vt 0.000000 0.000000
vt 0.000000 1.000000
vt 0.250000 1.000000
vt 0.250000 0.000000
vt 0.500000 1.000000
vt 0.500000 0.000000
vt 0.750000 1.000000
vt 0.750000 0.000000
vt 1.000000 1.000000
vt 1.000000 0.000000
vt 0.253919 0.015676
vt 0.253919 0.984324
vt 0.496416 0.985665
vt 0.496416 0.014335
vt 0.503584 0.014335
vt 0.503584 0.985665
vt 0.746081 0.984324
vt 0.746081 0.015676
vt 0.254489 0.017956
vt 0.254489 0.982044
vt 0.495895 0.983580
vt 0.495895 0.016420
vt 0.504105 0.016420
vt 0.504105 0.983580
vt 0.745511 0.982044
vt 0.745511 0.017956
vt 0.045020 0.045020
vt 0.021303 0.228697
vt 0.250000 0.250000
vt 0.226283 0.023717
vt 0.273717 0.023717
vt 0.500000 0.250000
vt 0.476283 0.023717
vt 0.523717 0.023717
vt 0.750000 0.250000
vt 0.726283 0.023717
vt 0.773717 0.023717
vt 0.978697 0.228697
vt 0.954980 0.045020
vt 0.021303 0.271303
vt 0.021303 0.478697
vt 0.250000 0.500000
vt 0.500000 0.500000
vt 0.581625 0.331625
vt 0.581625 0.418375
vt 0.668375 0.418375
vt 0.668375 0.331625
vt 0.750000 0.500000
vt 0.978697 0.478697
vt 0.978697 0.271303
vt 0.021303 0.521303
vt 0.021303 0.728697
vt 0.250000 0.750000
vt 0.500000 0.750000
vt 0.750000 0.750000
vt 0.978697 0.728697
vt 0.978697 0.521303
vt 0.021303 0.771303
vt 0.045020 0.954980
vt 0.226283 0.976283
vt 0.273717 0.976283
vt 0.476283 0.976283
vt 0.523717 0.976283
vt 0.726283 0.976283
vt 0.773717 0.976283
vt 0.954980 0.954980
vt 0.978697 0.771303
vt 0.000000 0.250000
vt 1.000000 0.250000
vt 0.000000 0.500000
vt 1.000000 0.500000
vt 0.000000 0.750000
vt 1.000000 0.750000
vt 0.544557 0.294557
vt 0.705443 0.294557
vt 0.705443 0.455443
vt 0.544557 0.455443
s 0
usemtl default
f 147/1/1 148/2/1 150/3/1 149/4/1
f 3/4/1 4/3/1 6/5/1 5/6/1
f 5/6/1 6/5/1 8/7/1 7/8/1
f 153/8/1 154/7/1 156/9/1 155/10/1
f 155/1/2 156/2/2 158/3/2 157/4/2
f 215/11/2 216/12/2 218/13/2 217/14/2
f 217/15/2 218/16/2 220/17/2 219/18/2
f 159/8/2 160/7/2 162/9/2 161/10/2
f 161/1/3 162/2/3 164/3/3 163/4/3
f 19/4/3 20/3/3 22/5/3 21/6/3
f 21/6/3 22/5/3 24/7/3 23/8/3
f 165/8/3 166/7/3 168/9/3 167/10/3
f 167/1/4 168/2/4 170/3/4 169/4/4
f 203/19/4 204/20/4 206/21/4 205/22/4
f 205/23/4 206/24/4 208/25/4 207/26/4
f 151/8/4 152/7/4 148/9/4 147/10/4
f 99/27/5 114/28/5 33/29/5 100/30/5
f 100/31/5 33/29/5 36/32/5 101/33/5
f 101/34/5 36/32/5 39/35/5 102/36/5
f 102/37/5 39/35/5 104/38/5 103/39/5
f 114/40/5 113/41/5 34/42/5 33/29/5
f 171/29/5 172/42/5 174/43/5 173/32/5
f 193/44/5 194/45/5 196/46/5 195/47/5
f 39/35/5 40/48/5 105/49/5 104/50/5
f 113/51/5 112/52/5 35/53/5 34/42/5
f 34/42/5 35/53/5 38/54/5 37/43/5
f 37/43/5 38/54/5 41/55/5 40/48/5
f 40/48/5 41/55/5 106/56/5 105/57/5
f 112/58/5 111/59/5 110/60/5 35/53/5
f 35/53/5 110/61/5 109/62/5 38/54/5
f 38/54/5 109/63/5 108/64/5 41/55/5
f 41/55/5 108/65/5 107/66/5 106/67/5
f 25/1/6 27/68/6 42/29/6 23/4/6
f 23/4/6 42/29/6 45/32/6 21/6/6
f 21/6/6 45/32/6 48/35/6 19/8/6
f 19/8/6 48/35/6 15/69/6 17/10/6
f 27/68/6 29/70/6 43/42/6 42/29/6
f 42/29/6 43/42/6 46/43/6 45/32/6
f 45/32/6 46/43/6 49/48/6 48/35/6
f 48/35/6 49/48/6 13/71/6 15/69/6
f 29/70/6 31/72/6 44/53/6 43/42/6
f 43/42/6 44/53/6 47/54/6 46/43/6
f 46/43/6 47/54/6 50/55/6 49/48/6
f 49/48/6 50/55/6 11/73/6 13/71/6
f 31/72/6 1/2/6 3/3/6 44/53/6
f 44/53/6 3/3/6 5/5/6 47/54/6
f 47/54/6 5/5/6 7/7/6 50/55/6
f 50/55/6 7/7/6 9/9/6 11/73/6
f 115/1/1 131/1/1 132/4/1 116/4/1
f 130/68/4 146/68/4 131/1/4 115/1/4
f 116/4/1 132/4/1 133/6/1 117/6/1
f 117/6/1 133/6/1 134/8/1 118/8/1
f 118/8/1 134/8/1 135/10/1 119/10/1
f 119/10/2 135/10/2 136/69/2 120/69/2
f 129/70/4 145/70/4 146/68/4 130/68/4
f 120/69/2 136/69/2 137/71/2 121/71/2
f 128/72/4 144/72/4 145/70/4 129/70/4
f 121/71/2 137/71/2 138/73/2 122/73/2
f 126/3/3 142/3/3 143/2/3 127/2/3
f 127/2/4 143/2/4 144/72/4 128/72/4
f 125/5/3 141/5/3 142/3/3 126/3/3
f 124/7/3 140/7/3 141/5/3 125/5/3
f 122/73/2 138/73/2 139/9/2 123/9/2
f 123/9/3 139/9/3 140/7/3 124/7/3
f 51/1/1 67/1/1 68/4/1 52/4/1
f 66/68/4 82/68/4 67/1/4 51/1/4
f 52/4/1 68/4/1 69/6/1 53/6/1
f 53/6/1 69/6/1 70/8/1 54/8/1
f 54/8/1 70/8/1 71/10/1 55/10/1
f 55/10/2 71/10/2 72/69/2 56/69/2
f 65/70/4 81/70/4 82/68/4 66/68/4
f 56/69/2 72/69/2 73/71/2 57/71/2
f 64/72/4 80/72/4 81/70/4 65/70/4
f 57/71/2 73/71/2 74/73/2 58/73/2
f 62/3/3 78/3/3 79/2/3 63/2/3
f 63/2/4 79/2/4 80/72/4 64/72/4
f 61/5/3 77/5/3 78/3/3 62/3/3
f 60/7/3 76/7/3 77/5/3 61/5/3
f 58/73/2 74/73/2 75/9/2 59/9/2
f 59/9/3 75/9/3 76/7/3 60/7/3
f 67/1/5 83/27/5 84/30/5 68/4/5
f 82/68/5 98/28/5 83/27/5 67/1/5
f 68/4/5 84/31/5 85/33/5 69/6/5
f 69/6/5 85/34/5 86/36/5 70/8/5
f 70/8/5 86/37/5 87/39/5 71/10/5
f 71/10/5 87/39/5 88/38/5 72/69/5
f 81/70/5 97/41/5 98/40/5 82/68/5
f 72/69/5 88/50/5 89/49/5 73/71/5
f 80/72/5 96/52/5 97/51/5 81/70/5
f 73/71/5 89/57/5 90/56/5 74/73/5
f 78/3/5 94/60/5 95/59/5 79/2/5
f 79/2/5 95/59/5 96/58/5 80/72/5
f 77/5/5 93/62/5 94/61/5 78/3/5
f 76/7/5 92/64/5 93/63/5 77/5/5
f 74/73/5 90/67/5 91/66/5 75/9/5
f 75/9/5 91/66/5 92/65/5 76/7/5
f 83/27/3 99/27/3 100/30/3 84/30/3
f 98/28/2 114/28/2 99/27/2 83/27/2
f 84/31/3 100/31/3 101/33/3 85/33/3
f 85/34/3 101/34/3 102/36/3 86/36/3
f 86/37/3 102/37/3 103/39/3 87/39/3
f 87/39/4 103/39/4 104/38/4 88/38/4
f 97/41/2 113/41/2 114/40/2 98/40/2
f 88/50/4 104/50/4 105/49/4 89/49/4
f 96/52/2 112/52/2 113/51/2 97/51/2
f 89/57/4 105/57/4 106/56/4 90/56/4
f 94/60/1 110/60/1 111/59/1 95/59/1
f 95/59/2 111/59/2 112/58/2 96/58/2
f 93/62/1 109/62/1 110/61/1 94/61/1
f 92/64/1 108/64/1 109/63/1 93/63/1
f 90/67/4 106/67/4 107/66/4 91/66/4
f 91/66/1 107/66/1 108/65/1 92/65/1
f 2/1/5 115/1/5 116/4/5 4/4/5
f 52/4/6 132/4/6 131/1/6 51/1/6
f 32/68/5 130/68/5 115/1/5 2/1/5
f 51/1/6 131/1/6 146/68/6 66/68/6
f 4/4/5 116/4/5 117/6/5 6/6/5
f 53/6/6 133/6/6 132/4/6 52/4/6
f 6/6/5 117/6/5 118/8/5 8/8/5
f 54/8/6 134/8/6 133/6/6 53/6/6
f 8/8/5 118/8/5 119/10/5 10/10/5
f 55/10/6 135/10/6 134/8/6 54/8/6
f 10/10/5 119/10/5 120/69/5 12/69/5
f 56/69/6 136/69/6 135/10/6 55/10/6
f 30/70/5 129/70/5 130/68/5 32/68/5
f 66/68/6 146/68/6 145/70/6 65/70/6
f 12/69/5 120/69/5 121/71/5 14/71/5
f 57/71/6 137/71/6 136/69/6 56/69/6
f 28/72/5 128/72/5 129/70/5 30/70/5
f 65/70/6 145/70/6 144/72/6 64/72/6
f 14/71/5 121/71/5 122/73/5 16/73/5
f 58/73/6 138/73/6 137/71/6 57/71/6
f 24/3/5 126/3/5 127/2/5 26/2/5
f 63/2/6 143/2/6 142/3/6 62/3/6
f 26/2/5 127/2/5 128/72/5 28/72/5
f 64/72/6 144/72/6 143/2/6 63/2/6
f 22/5/5 125/5/5 126/3/5 24/3/5
f 62/3/6 142/3/6 141/5/6 61/5/6
f 20/7/5 124/7/5 125/5/5 22/5/5
f 61/5/6 141/5/6 140/7/6 60/7/6
f 16/73/5 122/73/5 123/9/5 18/9/5
f 59/9/6 139/9/6 138/73/6 58/73/6
f 18/9/5 123/9/5 124/7/5 20/7/5
f 60/7/6 140/7/6 139/9/6 59/9/6
f 1/1/6 147/1/6 149/4/6 3/4/6
f 3/4/2 149/4/2 150/3/2 4/3/2
f 4/3/5 150/3/5 148/2/5 2/2/5
f 31/8/6 151/8/6 147/10/6 1/10/6
f 2/9/5 148/9/5 152/7/5 32/7/5
f 32/7/3 152/7/3 151/8/3 31/8/3
f 7/8/6 153/8/6 155/10/6 9/10/6
f 10/9/5 156/9/5 154/7/5 8/7/5
f 8/7/4 154/7/4 153/8/4 7/8/4
f 9/1/6 155/1/6 157/4/6 11/4/6
f 11/4/3 157/4/3 158/3/3 12/3/3
f 12/3/5 158/3/5 156/2/5 10/2/5
f 15/8/6 159/8/6 161/10/6 17/10/6
f 18/9/5 162/9/5 160/7/5 16/7/5
f 16/7/1 160/7/1 159/8/1 15/8/1
f 17/1/6 161/1/6 163/4/6 19/4/6
f 19/4/4 163/4/4 164/3/4 20/3/4
f 20/3/5 164/3/5 162/2/5 18/2/5
f 23/8/6 165/8/6 167/10/6 25/10/6
f 26/9/5 168/9/5 166/7/5 24/7/5
f 24/7/2 166/7/2 165/8/2 23/8/2
f 25/1/6 167/1/6 169/4/6 27/4/6
f 27/4/1 169/4/1 170/3/1 28/3/1
f 28/3/5 170/3/5 168/2/5 26/2/5
f 33/29/1 171/29/1 173/32/1 36/32/1
f 37/43/3 174/43/3 172/42/3 34/42/3
f 34/42/4 172/42/4 171/29/4 33/29/4
f 36/32/1 173/32/1 175/35/1 39/35/1
f 39/35/2 175/35/2 176/48/2 40/48/2
f 40/48/3 176/48/3 174/43/3 37/43/3
f 173/32/1 177/32/1 179/35/1 175/35/1
f 175/35/2 179/35/2 180/48/2 176/48/2
f 176/48/3 180/48/3 178/43/3 174/43/3
f 174/43/4 178/43/4 177/32/4 173/32/4
f 177/32/5 181/74/5 183/75/5 179/35/5
f 179/35/5 183/75/5 184/76/5 180/48/5
f 180/48/5 184/76/5 182/77/5 178/43/5
f 178/43/5 182/77/5 181/74/5 177/32/5
f 181/74/1 185/74/1 187/75/1 183/75/1
f 183/75/2 187/75/2 188/76/2 184/76/2
f 184/76/3 188/76/3 186/77/3 182/77/3
f 182/77/4 186/77/4 185/74/4 181/74/4
f 185/74/5 189/44/5 191/47/5 187/75/5
f 187/75/5 191/47/5 192/46/5 188/76/5
f 188/76/5 192/46/5 190/45/5 186/77/5
f 186/77/5 190/45/5 189/44/5 185/74/5
f 189/44/1 193/44/1 195/47/1 191/47/1
f 191/47/2 195/47/2 196/46/2 192/46/2
f 192/46/3 196/46/3 194/45/3 190/45/3
f 190/45/4 194/45/4 193/44/4 189/44/4
f 27/4/4 197/19/4 199/22/4 29/6/4
f 30/5/4 200/21/4 198/20/4 28/3/4
f 28/3/4 198/20/4 197/19/4 27/4/4
f 29/6/4 199/23/4 201/26/4 31/8/4
f 31/8/4 201/26/4 202/25/4 32/7/4
f 32/7/4 202/25/4 200/24/4 30/5/4
f 197/19/5 203/19/5 205/22/5 199/22/5
f 200/21/6 206/21/6 204/20/6 198/20/6
f 198/20/1 204/20/1 203/19/1 197/19/1
f 199/23/5 205/23/5 207/26/5 201/26/5
f 201/26/3 207/26/3 208/25/3 202/25/3
f 202/25/6 208/25/6 206/24/6 200/24/6
f 11/4/2 209/11/2 211/14/2 13/6/2
f 14/5/2 212/13/2 210/12/2 12/3/2
f 12/3/2 210/12/2 209/11/2 11/4/2
f 13/6/2 211/15/2 213/18/2 15/8/2
f 15/8/2 213/18/2 214/17/2 16/7/2
f 16/7/2 214/17/2 212/16/2 14/5/2
f 209/11/5 215/11/5 217/14/5 211/14/5
f 212/13/6 218/13/6 216/12/6 210/12/6
f 210/12/3 216/12/3 215/11/3 209/11/3
f 211/15/5 217/15/5 219/18/5 213/18/5
f 213/18/1 219/18/1 220/17/1 214/17/1
f 214/17/6 220/17/6 218/16/6 212/16/6
