<?xml version="1.0" encoding="UTF-8" standalone="no"?>
<svg
   width="16"
   height="16"
   fill="currentColor"
   class="bi bi-mouse2"
   viewBox="0 0 16 16"
   version="1.1"
   id="svg4"
   sodipodi:docname="mouse2.svg"
   inkscape:version="1.1.2 (b8e25be833, 2022-02-05)"
   xmlns:inkscape="http://www.inkscape.org/namespaces/inkscape"
   xmlns:sodipodi="http://sodipodi.sourceforge.net/DTD/sodipodi-0.dtd"
   xmlns="http://www.w3.org/2000/svg"
   xmlns:svg="http://www.w3.org/2000/svg">
  <defs
     id="defs8" />
  <sodipodi:namedview
     id="namedview6"
     pagecolor="#ffffff"
     bordercolor="#666666"
     borderopacity="1.0"
     inkscape:pageshadow="2"
     inkscape:pageopacity="0.0"
     inkscape:pagecheckerboard="0"
     showgrid="false"
     inkscape:zoom="49.875"
     inkscape:cx="8"
     inkscape:cy="7.9899749"
     inkscape:window-width="2400"
     inkscape:window-height="1261"
     inkscape:window-x="-2409"
     inkscape:window-y="-549"
     inkscape:window-maximized="1"
     inkscape:current-layer="svg4" />
  <path
     d="M 3,5.188 C 3,2.341 5.22,0 8,0 c 2.78,0 5,2.342 5,5.188 v 5.625 C 13,13.658 10.78,16 8,16 5.22,16 3,13.658 3,10.812 V 5.189 Z M 7.5,1.033 C 5.541,1.289 4,3.035 4,5.188 V 5.5 h 3.5 z m 1,0 V 5.5 H 12 V 5.187 C 12,3.035 10.459,1.289 8.5,1.033 M 12,6.5 H 4 v 4.313 C 4,13.145 5.81,15 8,15 c 2.19,0 4,-1.855 4,-4.188 z"
     id="path2"
     sodipodi:nodetypes="sssssscscsccccccscccsssc" />
  <path
     d="M 8.8007519,5.2042607 H 11.538848 V 4.9446469 c 0,-1.7849485 -1.205545,-3.2331455 -2.7380961,-3.4454814"
     id="path1153"
     style="stroke-width:0.80553" />
</svg>
