# Blender 4.0.2
# www.blender.org
mtllib building4.mtl
o Highrise_4
v -71.224731 2.591309 -49.699966
v -71.224731 479.645782 -49.700001
v 71.223999 2.591309 -49.699966
v 71.223999 479.645782 -49.700001
v 71.223999 2.591309 49.700031
v 71.223999 479.645782 49.699997
v -71.224731 2.591309 49.700031
v -71.224731 479.645782 49.699997
v -65.624634 479.645782 -44.100002
v 65.624023 479.645782 -44.100002
v 65.624023 479.645782 44.099998
v -65.624634 479.645782 44.099998
v -65.624634 473.345795 -44.100002
v 65.624023 473.345795 -44.100002
v 65.624023 473.345795 44.099998
v -65.624634 473.345795 44.099998
v -71.224731 21.691315 -49.699966
v -71.224731 460.545776 -49.700001
v 71.223999 21.691315 -49.699966
v 71.223999 460.545776 -49.700001
v 71.223999 21.691315 49.700031
v 71.223999 460.545776 49.699997
v -71.224731 21.691315 49.700031
v -71.224731 460.545776 49.699997
v -71.224731 26.391296 -49.699966
v -71.224731 455.845795 -49.700001
v 71.223999 26.391296 -49.699966
v 71.223999 455.845795 -49.700001
v 71.223999 26.391296 49.700031
v 71.223999 455.845795 49.699997
v -71.224731 26.391296 49.700031
v -71.224731 455.845795 49.699997
v -74.824707 26.391296 -53.299965
v -74.824707 455.845795 -53.299999
v 74.823975 26.391296 -53.299965
v 74.823975 455.845795 -53.299999
v 74.823975 26.391296 53.300037
v 74.823975 455.845795 53.300003
v -74.824707 26.391296 53.300037
v -74.824707 455.845795 53.300003
v -66.024658 460.545776 -44.500000
v 66.023926 460.545776 -44.500000
v 66.023926 460.545776 44.500000
v -66.024658 460.545776 44.500000
v -66.024658 455.845795 -44.500000
v 66.023926 455.845795 -44.500000
v 66.023926 455.845795 44.500000
v -66.024658 455.845795 44.500000
v -48.924683 473.345795 -27.400000
v 48.923950 473.345795 -27.400000
v 48.923950 473.345795 27.400002
v -48.924683 473.345795 27.400002
v -48.924683 479.645782 -27.400000
v 48.923950 479.645782 -27.400000
v 48.923950 479.645782 27.400002
v -48.924683 479.645782 27.400002
v -39.990234 38.391296 -53.299965
v -39.990234 443.845795 -53.299995
v 39.989502 38.391296 -53.299965
v 39.989502 443.845795 -53.299995
v 39.989502 38.391296 53.300037
v 39.989502 443.845795 53.300007
v -39.990234 38.391296 53.300037
v -39.990234 443.845795 53.300007
v -39.990234 38.391296 -37.299965
v -39.990234 443.845795 -37.299995
v 39.989502 38.391296 -37.299965
v 39.989502 443.845795 -37.299995
v 39.989502 38.391296 37.300037
v 39.989502 443.845795 37.300007
v -39.990234 38.391296 37.300037
v -39.990234 443.845795 37.300007
vn -0.0000 -0.0000 -1.0000
vn 1.0000 -0.0000 -0.0000
vn -0.0000 -0.0000 1.0000
vn -1.0000 -0.0000 -0.0000
vn -0.0000 1.0000 -0.0000
vn -0.0000 -1.0000 -0.0000
vt 0.076262 0.076262
vt 0.076262 0.923738
vt 0.923738 0.923738
vt 0.923738 0.076262
vt 0.047777 0.047777
vt 0.047777 0.952223
vt 0.952223 0.952223
vt 0.952223 0.047777
vt 0.178290 0.178290
vt 0.178290 0.821710
vt 0.821710 0.821710
vt 0.821710 0.178290
vt 0.000000 0.000000
vt 0.000000 1.000000
vt 1.000000 1.000000
vt 1.000000 0.000000
vt 0.044888 0.044888
vt 0.955112 0.044888
vt 0.955112 0.955112
vt 0.044888 0.955112
vt 0.036760 0.036760
vt 0.963240 0.036760
vt 0.963240 0.963240
vt 0.036760 0.963240
vt 0.038371 0.038371
vt 0.961629 0.038371
vt 0.961629 0.961629
vt 0.038371 0.961629
vt 0.045736 0.045736
vt 0.954264 0.045736
vt 0.954264 0.954264
vt 0.045736 0.954264
s 0
usemtl default
f 65/1/1 66/2/1 68/3/1 67/4/1
f 35/5/2 36/6/2 38/7/2 37/8/2
f 69/1/3 70/2/3 72/3/3 71/4/3
f 39/5/4 40/6/4 34/7/4 33/8/4
f 53/9/5 56/10/5 55/11/5 54/12/5
f 7/13/6 1/14/6 3/15/6 5/16/6
f 2/13/5 9/17/5 10/18/5 4/16/5
f 4/16/5 10/18/5 11/19/5 6/15/5
f 6/15/5 11/19/5 12/20/5 8/14/5
f 8/14/5 12/20/5 9/17/5 2/13/5
f 9/17/3 13/17/3 14/18/3 10/18/3
f 10/18/4 14/18/4 15/19/4 11/19/4
f 11/19/1 15/19/1 16/20/1 12/20/1
f 12/20/2 16/20/2 13/17/2 9/17/2
f 1/13/1 17/21/1 19/22/1 3/16/1
f 4/15/1 20/23/1 18/24/1 2/14/1
f 3/13/2 19/25/2 21/26/2 5/16/2
f 6/15/2 22/27/2 20/28/2 4/14/2
f 5/13/3 21/21/3 23/22/3 7/16/3
f 8/15/3 24/23/3 22/24/3 6/14/3
f 7/13/4 23/25/4 17/26/4 1/16/4
f 2/15/4 18/27/4 24/28/4 8/14/4
f 17/21/1 25/29/1 27/30/1 19/22/1
f 42/23/1 46/31/1 45/32/1 41/24/1
f 19/25/2 27/5/2 29/8/2 21/26/2
f 43/27/2 47/7/2 46/6/2 42/28/2
f 21/21/3 29/29/3 31/30/3 23/22/3
f 44/23/3 48/31/3 47/32/3 43/24/3
f 23/25/4 31/5/4 25/8/4 17/26/4
f 41/27/4 45/7/4 48/6/4 44/28/4
f 25/29/6 33/29/6 35/30/6 27/30/6
f 28/31/5 36/31/5 34/32/5 26/32/5
f 27/5/6 35/5/6 37/8/6 29/8/6
f 30/7/5 38/7/5 36/6/5 28/6/5
f 29/29/6 37/29/6 39/30/6 31/30/6
f 32/31/5 40/31/5 38/32/5 30/32/5
f 31/5/6 39/5/6 33/8/6 25/8/6
f 26/7/5 34/7/5 40/6/5 32/6/5
f 20/23/6 42/23/6 41/24/6 18/24/6
f 26/32/5 45/32/5 46/31/5 28/31/5
f 22/27/6 43/27/6 42/28/6 20/28/6
f 28/6/5 46/6/5 47/7/5 30/7/5
f 24/23/6 44/23/6 43/24/6 22/24/6
f 30/32/5 47/32/5 48/31/5 32/31/5
f 18/27/6 41/27/6 44/28/6 24/28/6
f 32/6/5 48/6/5 45/7/5 26/7/5
f 13/17/5 49/9/5 50/12/5 14/18/5
f 14/18/5 50/12/5 51/11/5 15/19/5
f 15/19/5 51/11/5 52/10/5 16/20/5
f 16/20/5 52/10/5 49/9/5 13/17/5
f 49/9/1 53/9/1 54/12/1 50/12/1
f 50/12/2 54/12/2 55/11/2 51/11/2
f 51/11/3 55/11/3 56/10/3 52/10/3
f 52/10/4 56/10/4 53/9/4 49/9/4
f 33/29/1 57/1/1 59/4/1 35/30/1
f 35/30/1 59/4/1 60/3/1 36/31/1
f 36/31/1 60/3/1 58/2/1 34/32/1
f 34/32/1 58/2/1 57/1/1 33/29/1
f 37/29/3 61/1/3 63/4/3 39/30/3
f 39/30/3 63/4/3 64/3/3 40/31/3
f 40/31/3 64/3/3 62/2/3 38/32/3
f 38/32/3 62/2/3 61/1/3 37/29/3
f 57/1/5 65/1/5 67/4/5 59/4/5
f 59/4/4 67/4/4 68/3/4 60/3/4
f 60/3/6 68/3/6 66/2/6 58/2/6
f 58/2/2 66/2/2 65/1/2 57/1/2
f 61/1/5 69/1/5 71/4/5 63/4/5
f 63/4/2 71/4/2 72/3/2 64/3/2
f 64/3/6 72/3/6 70/2/6 62/2/6
f 62/2/4 70/2/4 69/1/4 61/1/4
