# Blender 4.0.2
# www.blender.org
mtllib building3.mtl
o Highrise_3
v 52.800537 -0.911743 -53.736965
v 52.800537 103.559006 -53.736969
v 52.800537 208.029770 -53.736977
v 52.800537 312.500549 -53.736980
v 52.800537 -0.911758 51.863033
v 52.800537 103.559013 51.863026
v 52.800537 208.029770 51.863026
v 52.800537 312.500519 51.863018
v -52.799438 -0.911758 51.863033
v -52.799438 103.559013 51.863026
v -52.799438 208.029770 51.863018
v -52.799438 312.500519 51.863018
v -52.799438 -0.911743 -53.736969
v -52.799438 103.559006 -53.736973
v -52.799438 208.029770 -53.736977
v -52.799438 312.500549 -53.736984
v 52.800537 4.088257 -48.736965
v 52.800537 98.559013 -48.736969
v 52.800537 4.088242 46.863033
v 52.800537 98.559006 46.863026
v 52.800537 108.559013 -48.736969
v 52.800537 203.029770 -48.736977
v 52.800537 108.559006 46.863026
v 52.800537 203.029770 46.863026
v 52.800537 213.029770 -48.736977
v 52.800537 307.500549 -48.736980
v 52.800537 213.029770 46.863026
v 52.800537 307.500519 46.863018
v 47.800537 4.088242 51.863033
v 47.800537 98.559013 51.863026
v -47.799438 4.088242 51.863033
v -47.799438 98.559013 51.863026
v 47.800537 108.559013 51.863026
v 47.800537 203.029770 51.863026
v -47.799438 108.559013 51.863026
v -47.799438 203.029770 51.863018
v 47.800537 213.029770 51.863026
v 47.800537 307.500519 51.863018
v -47.799438 213.029770 51.863026
v -47.799438 307.500519 51.863018
v -52.799438 4.088242 46.863033
v -52.799438 98.559006 46.863026
v -52.799438 4.088257 -48.736969
v -52.799438 98.559013 -48.736973
v -52.799438 108.559006 46.863026
v -52.799438 203.029770 46.863018
v -52.799438 108.559013 -48.736973
v -52.799438 203.029770 -48.736977
v -52.799438 213.029770 46.863026
v -52.799438 307.500519 46.863018
v -52.799438 213.029770 -48.736977
v -52.799438 307.500549 -48.736984
v 47.800537 4.088257 -53.736965
v 47.800537 98.559006 -53.736973
v -47.799438 4.088257 -53.736969
v -47.799438 98.559006 -53.736973
v 47.800537 108.559006 -53.736969
v 47.800537 203.029770 -53.736977
v -47.799438 108.559006 -53.736973
v -47.799438 203.029770 -53.736977
v 47.800537 213.029770 -53.736977
v 47.800537 307.500549 -53.736980
v -47.799438 213.029770 -53.736977
v -47.799438 307.500549 -53.736984
v 49.600586 4.088257 -48.736965
v 49.600586 98.559013 -48.736969
v 49.600586 4.088242 46.863033
v 49.600586 98.559006 46.863026
v 49.600586 108.559013 -48.736969
v 49.600586 203.029770 -48.736977
v 49.600586 108.559006 46.863026
v 49.600586 203.029770 46.863026
v 49.600586 213.029770 -48.736977
v 49.600586 307.500549 -48.736980
v 49.600586 213.029770 46.863026
v 49.600586 307.500519 46.863018
v 47.800537 4.088242 48.663036
v 47.800537 98.559006 48.663029
v -47.799438 4.088242 48.663029
v -47.799438 98.559006 48.663029
v 47.800537 108.559006 48.663029
v 47.800537 203.029770 48.663021
v -47.799438 108.559006 48.663029
v -47.799438 203.029770 48.663021
v 47.800537 213.029770 48.663021
v 47.800537 307.500519 48.663021
v -47.799438 213.029770 48.663021
v -47.799438 307.500519 48.663021
v -49.599365 4.088242 46.863033
v -49.599365 98.559006 46.863026
v -49.599365 4.088257 -48.736969
v -49.599365 98.559013 -48.736973
v -49.599365 108.559006 46.863026
v -49.599365 203.029770 46.863018
v -49.599365 108.559013 -48.736973
v -49.599365 203.029770 -48.736977
v -49.599365 213.029770 46.863026
v -49.599365 307.500519 46.863018
v -49.599365 213.029770 -48.736977
v -49.599365 307.500549 -48.736984
v 47.800537 4.088257 -50.536964
v 47.800537 98.559006 -50.536972
v -47.799438 4.088257 -50.536968
v -47.799438 98.559006 -50.536972
v 47.800537 108.559006 -50.536972
v 47.800537 203.029770 -50.536976
v -47.799438 108.559006 -50.536972
v -47.799438 203.029770 -50.536980
v 47.800537 213.029770 -50.536976
v 47.800537 307.500549 -50.536980
v -47.799438 213.029770 -50.536980
v -47.799438 307.500549 -50.536983
v 48.400635 312.500549 -49.336979
v 48.400635 312.500519 47.463017
v -48.399414 312.500519 47.463017
v -48.399414 312.500549 -49.336983
v 48.400635 344.200531 -49.336979
v 48.400635 344.200531 47.463024
v -48.399414 344.200531 47.463017
v -48.399414 344.200531 -49.336983
v 43.000610 344.200531 -43.936981
v 43.000610 344.200531 42.063023
v -42.999390 344.200531 42.063015
v -42.999390 344.200531 -43.936981
v 43.000610 353.700531 -43.936985
v 43.000610 353.700531 42.063019
v -42.999390 353.700531 42.063011
v -42.999390 353.700531 -43.936985
v 39.600586 353.700531 -40.536983
v 39.600586 353.700531 38.663017
v -39.599365 353.700531 38.663017
v -39.599365 353.700531 -40.536983
v 39.600586 350.500549 -40.536983
v 39.600586 350.500519 38.663017
v -39.599365 350.500519 38.663017
v -39.599365 350.500549 -40.536983
v 13.600586 350.500549 6.076296
v 13.600586 350.500549 33.276291
v -13.599365 350.500549 33.276291
v -13.599365 350.500549 6.076296
v 13.600586 359.900543 6.076295
v 13.600586 359.900543 33.276291
v -13.599365 359.900543 33.276291
v -13.599365 359.900543 6.076295
v 48.400635 315.700531 -46.136978
v 48.400635 315.700531 44.263020
v 48.400635 341.000549 -46.136978
v 48.400635 341.000519 44.263020
v 45.200562 315.700531 47.463017
v -45.199463 315.700531 47.463017
v 45.200562 341.000519 47.463024
v -45.199463 341.000519 47.463017
v -48.399414 315.700531 44.263020
v -48.399414 315.700531 -46.136982
v -48.399414 341.000519 44.263020
v -48.399414 341.000549 -46.136982
v 45.200562 315.700531 -49.336979
v -45.199463 315.700531 -49.336983
v 45.200562 341.000549 -49.336979
v -45.199463 341.000549 -49.336983
v 46.900635 315.700531 -46.136978
v 46.900635 315.700531 44.263020
v 46.900635 341.000549 -46.136978
v 46.900635 341.000519 44.263020
v 45.200562 315.700531 45.963017
v -45.199463 315.700531 45.963017
v 45.200562 341.000519 45.963024
v -45.199463 341.000519 45.963017
v -46.899414 315.700531 44.263020
v -46.899414 315.700531 -46.136982
v -46.899414 341.000519 44.263020
v -46.899414 341.000549 -46.136982
v 45.200562 315.700531 -47.836979
v -45.199463 315.700531 -47.836983
v 45.200562 341.000549 -47.836979
v -45.199463 341.000549 -47.836983
vn 1.0000 -0.0000 -0.0000
vn -0.0000 -0.0000 1.0000
vn -1.0000 -0.0000 -0.0000
vn -0.0000 -0.0000 -1.0000
vn -0.0000 1.0000 -0.0000
vn -0.0000 -1.0000 -0.0000
vt 0.047602 0.015867
vt 0.047602 0.317466
vt 0.952398 0.317466
vt 0.952398 0.015867
vt 0.047602 0.349201
vt 0.047602 0.650800
vt 0.952398 0.650800
vt 0.952398 0.349201
vt 0.047602 0.682534
vt 0.047602 0.984133
vt 0.952398 0.984133
vt 0.952398 0.682534
vt 0.371212 0.371212
vt 0.371212 0.628788
vt 0.628788 0.628788
vt 0.628788 0.371212
vt 0.000000 0.000000
vt 0.000000 1.000000
vt 1.000000 1.000000
vt 1.000000 0.000000
vt 1.000000 0.333333
vt 0.000000 0.333333
vt 1.000000 0.666667
vt 0.000000 0.666667
vt 0.041667 0.041667
vt 0.958333 0.041667
vt 0.958333 0.958333
vt 0.041667 0.958333
vt 0.077997 0.041667
vt 0.922003 0.041667
vt 0.958333 0.077997
vt 0.958333 0.922003
vt 0.922003 0.958333
vt 0.077997 0.958333
vt 0.041667 0.922003
vt 0.041667 0.077997
vt 0.092803 0.092803
vt 0.907197 0.092803
vt 0.907197 0.907197
vt 0.092803 0.907197
vt 0.125000 0.125000
vt 0.875000 0.125000
vt 0.875000 0.875000
vt 0.125000 0.875000
s 0
usemtl default
f 65/1/1 66/2/1 68/3/1 67/4/1
f 69/5/1 70/6/1 72/7/1 71/8/1
f 73/9/1 74/10/1 76/11/1 75/12/1
f 77/1/2 78/2/2 80/3/2 79/4/2
f 81/5/2 82/6/2 84/7/2 83/8/2
f 85/9/2 86/10/2 88/11/2 87/12/2
f 89/1/3 90/2/3 92/3/3 91/4/3
f 93/5/3 94/6/3 96/7/3 95/8/3
f 97/9/3 98/10/3 100/11/3 99/12/3
f 103/1/4 104/2/4 102/3/4 101/4/4
f 107/5/4 108/6/4 106/7/4 105/8/4
f 111/9/4 112/10/4 110/11/4 109/12/4
f 141/13/5 144/14/5 143/15/5 142/16/5
f 13/17/6 1/18/6 5/19/6 9/20/6
f 1/17/1 17/1/1 19/4/1 5/20/1
f 5/20/1 19/4/1 20/3/1 6/21/1
f 6/21/1 20/3/1 18/2/1 2/22/1
f 2/22/1 18/2/1 17/1/1 1/17/1
f 2/22/1 21/5/1 23/8/1 6/21/1
f 6/21/1 23/8/1 24/7/1 7/23/1
f 7/23/1 24/7/1 22/6/1 3/24/1
f 3/24/1 22/6/1 21/5/1 2/22/1
f 3/24/1 25/9/1 27/12/1 7/23/1
f 7/23/1 27/12/1 28/11/1 8/19/1
f 8/19/1 28/11/1 26/10/1 4/18/1
f 4/18/1 26/10/1 25/9/1 3/24/1
f 5/17/2 29/1/2 31/4/2 9/20/2
f 9/20/2 31/4/2 32/3/2 10/21/2
f 10/21/2 32/3/2 30/2/2 6/22/2
f 6/22/2 30/2/2 29/1/2 5/17/2
f 6/22/2 33/5/2 35/8/2 10/21/2
f 10/21/2 35/8/2 36/7/2 11/23/2
f 11/23/2 36/7/2 34/6/2 7/24/2
f 7/24/2 34/6/2 33/5/2 6/22/2
f 7/24/2 37/9/2 39/12/2 11/23/2
f 11/23/2 39/12/2 40/11/2 12/19/2
f 12/19/2 40/11/2 38/10/2 8/18/2
f 8/18/2 38/10/2 37/9/2 7/24/2
f 9/17/3 41/1/3 43/4/3 13/20/3
f 13/20/3 43/4/3 44/3/3 14/21/3
f 14/21/3 44/3/3 42/2/3 10/22/3
f 10/22/3 42/2/3 41/1/3 9/17/3
f 10/22/3 45/5/3 47/8/3 14/21/3
f 14/21/3 47/8/3 48/7/3 15/23/3
f 15/23/3 48/7/3 46/6/3 11/24/3
f 11/24/3 46/6/3 45/5/3 10/22/3
f 11/24/3 49/9/3 51/12/3 15/23/3
f 15/23/3 51/12/3 52/11/3 16/19/3
f 16/19/3 52/11/3 50/10/3 12/18/3
f 12/18/3 50/10/3 49/9/3 11/24/3
f 13/17/4 55/1/4 53/4/4 1/20/4
f 1/20/4 53/4/4 54/3/4 2/21/4
f 2/21/4 54/3/4 56/2/4 14/22/4
f 14/22/4 56/2/4 55/1/4 13/17/4
f 14/22/4 59/5/4 57/8/4 2/21/4
f 2/21/4 57/8/4 58/7/4 3/23/4
f 3/23/4 58/7/4 60/6/4 15/24/4
f 15/24/4 60/6/4 59/5/4 14/22/4
f 15/24/4 63/9/4 61/12/4 3/23/4
f 3/23/4 61/12/4 62/11/4 4/19/4
f 4/19/4 62/11/4 64/10/4 16/18/4
f 16/18/4 64/10/4 63/9/4 15/24/4
f 17/1/5 65/1/5 67/4/5 19/4/5
f 19/4/4 67/4/4 68/3/4 20/3/4
f 20/3/6 68/3/6 66/2/6 18/2/6
f 18/2/2 66/2/2 65/1/2 17/1/2
f 21/5/5 69/5/5 71/8/5 23/8/5
f 23/8/4 71/8/4 72/7/4 24/7/4
f 24/7/6 72/7/6 70/6/6 22/6/6
f 22/6/2 70/6/2 69/5/2 21/5/2
f 25/9/5 73/9/5 75/12/5 27/12/5
f 27/12/4 75/12/4 76/11/4 28/11/4
f 28/11/6 76/11/6 74/10/6 26/10/6
f 26/10/2 74/10/2 73/9/2 25/9/2
f 29/1/5 77/1/5 79/4/5 31/4/5
f 31/4/1 79/4/1 80/3/1 32/3/1
f 32/3/6 80/3/6 78/2/6 30/2/6
f 30/2/3 78/2/3 77/1/3 29/1/3
f 33/5/5 81/5/5 83/8/5 35/8/5
f 35/8/1 83/8/1 84/7/1 36/7/1
f 36/7/6 84/7/6 82/6/6 34/6/6
f 34/6/3 82/6/3 81/5/3 33/5/3
f 37/9/5 85/9/5 87/12/5 39/12/5
f 39/12/1 87/12/1 88/11/1 40/11/1
f 40/11/6 88/11/6 86/10/6 38/10/6
f 38/10/3 86/10/3 85/9/3 37/9/3
f 41/1/5 89/1/5 91/4/5 43/4/5
f 43/4/2 91/4/2 92/3/2 44/3/2
f 44/3/6 92/3/6 90/2/6 42/2/6
f 42/2/4 90/2/4 89/1/4 41/1/4
f 45/5/5 93/5/5 95/8/5 47/8/5
f 47/8/2 95/8/2 96/7/2 48/7/2
f 48/7/6 96/7/6 94/6/6 46/6/6
f 46/6/4 94/6/4 93/5/4 45/5/4
f 49/9/5 97/9/5 99/12/5 51/12/5
f 51/12/2 99/12/2 100/11/2 52/11/2
f 52/11/6 100/11/6 98/10/6 50/10/6
f 50/10/4 98/10/4 97/9/4 49/9/4
f 55/1/5 103/1/5 101/4/5 53/4/5
f 53/4/3 101/4/3 102/3/3 54/3/3
f 54/3/6 102/3/6 104/2/6 56/2/6
f 56/2/1 104/2/1 103/1/1 55/1/1
f 59/5/5 107/5/5 105/8/5 57/8/5
f 57/8/3 105/8/3 106/7/3 58/7/3
f 58/7/6 106/7/6 108/6/6 60/6/6
f 60/6/1 108/6/1 107/5/1 59/5/1
f 63/9/5 111/9/5 109/12/5 61/12/5
f 61/12/3 109/12/3 110/11/3 62/11/3
f 62/11/6 110/11/6 112/10/6 64/10/6
f 64/10/1 112/10/1 111/9/1 63/9/1
f 4/17/5 113/25/5 114/26/5 8/20/5
f 8/20/5 114/26/5 115/27/5 12/19/5
f 12/19/5 115/27/5 116/28/5 16/18/5
f 16/18/5 116/28/5 113/25/5 4/17/5
f 161/29/1 163/29/1 164/30/1 162/30/1
f 165/31/2 167/31/2 168/32/2 166/32/2
f 169/33/3 171/33/3 172/34/3 170/34/3
f 174/35/4 176/35/4 175/36/4 173/36/4
f 117/25/5 121/37/5 122/38/5 118/26/5
f 118/26/5 122/38/5 123/39/5 119/27/5
f 119/27/5 123/39/5 124/40/5 120/28/5
f 120/28/5 124/40/5 121/37/5 117/25/5
f 121/37/1 125/37/1 126/38/1 122/38/1
f 122/38/2 126/38/2 127/39/2 123/39/2
f 123/39/3 127/39/3 128/40/3 124/40/3
f 124/40/4 128/40/4 125/37/4 121/37/4
f 125/37/5 129/41/5 130/42/5 126/38/5
f 126/38/5 130/42/5 131/43/5 127/39/5
f 127/39/5 131/43/5 132/44/5 128/40/5
f 128/40/5 132/44/5 129/41/5 125/37/5
f 129/41/3 133/41/3 134/42/3 130/42/3
f 130/42/4 134/42/4 135/43/4 131/43/4
f 131/43/1 135/43/1 136/44/1 132/44/1
f 132/44/2 136/44/2 133/41/2 129/41/2
f 133/41/5 137/13/5 138/16/5 134/42/5
f 134/42/5 138/16/5 139/15/5 135/43/5
f 135/43/5 139/15/5 140/14/5 136/44/5
f 136/44/5 140/14/5 137/13/5 133/41/5
f 137/13/1 141/13/1 142/16/1 138/16/1
f 138/16/2 142/16/2 143/15/2 139/15/2
f 139/15/3 143/15/3 144/14/3 140/14/3
f 140/14/4 144/14/4 141/13/4 137/13/4
f 113/25/1 145/29/1 146/30/1 114/26/1
f 114/26/1 146/30/1 148/30/1 118/26/1
f 118/26/1 148/30/1 147/29/1 117/25/1
f 117/25/1 147/29/1 145/29/1 113/25/1
f 114/26/2 149/31/2 150/32/2 115/27/2
f 115/27/2 150/32/2 152/32/2 119/27/2
f 119/27/2 152/32/2 151/31/2 118/26/2
f 118/26/2 151/31/2 149/31/2 114/26/2
f 115/27/3 153/33/3 154/34/3 116/28/3
f 116/28/3 154/34/3 156/34/3 120/28/3
f 120/28/3 156/34/3 155/33/3 119/27/3
f 119/27/3 155/33/3 153/33/3 115/27/3
f 116/28/4 158/35/4 157/36/4 113/25/4
f 113/25/4 157/36/4 159/36/4 117/25/4
f 117/25/4 159/36/4 160/35/4 120/28/4
f 120/28/4 160/35/4 158/35/4 116/28/4
f 145/29/5 161/29/5 162/30/5 146/30/5
f 146/30/4 162/30/4 164/30/4 148/30/4
f 148/30/6 164/30/6 163/29/6 147/29/6
f 147/29/2 163/29/2 161/29/2 145/29/2
f 149/31/5 165/31/5 166/32/5 150/32/5
f 150/32/1 166/32/1 168/32/1 152/32/1
f 152/32/6 168/32/6 167/31/6 151/31/6
f 151/31/3 167/31/3 165/31/3 149/31/3
f 153/33/5 169/33/5 170/34/5 154/34/5
f 154/34/2 170/34/2 172/34/2 156/34/2
f 156/34/6 172/34/6 171/33/6 155/33/6
f 155/33/4 171/33/4 169/33/4 153/33/4
f 158/35/5 174/35/5 173/36/5 157/36/5
f 157/36/3 173/36/3 175/36/3 159/36/3
f 159/36/6 175/36/6 176/35/6 160/35/6
f 160/35/1 176/35/1 174/35/1 158/35/1
