# Blender 4.0.2
# www.blender.org
mtllib building8.mtl
o Highrise_8
v -92.977783 3.416260 -100.000008
v -92.977783 103.416252 -100.000015
v -92.977783 203.416260 -100.000023
v 107.022217 3.416260 -100.000008
v 107.022217 103.416252 -100.000015
v 107.022217 203.416260 -100.000023
v 107.022217 3.416260 99.999992
v 107.022217 103.416267 99.999985
v 107.022217 203.416260 99.999977
v -92.977783 3.416260 99.999992
v -92.977783 103.416267 99.999985
v -92.977783 203.416260 99.999977
v -101.477783 3.416245 -108.500008
v -101.477783 103.416252 -108.500015
v 115.522217 3.416245 -108.500008
v 115.522217 103.416252 -108.500015
v 115.522217 3.416275 108.499992
v 115.522217 103.416267 108.499985
v -101.477783 3.416275 108.499992
v -101.477783 103.416267 108.499985
v -69.777832 224.238556 -76.800034
v 83.822144 224.238556 -76.800034
v 83.822144 224.238556 76.799973
v -69.777832 224.238556 76.799973
v -64.177856 224.238556 -71.200035
v 78.222168 224.238556 -71.200035
v 78.222168 224.238556 71.199966
v -64.177856 224.238556 71.199966
v -64.177856 218.438553 -71.200035
v 78.222168 218.438553 -71.200035
v 78.222168 218.438553 71.199966
v -64.177856 218.438553 71.199966
v -54.289673 218.438553 -26.200024
v -1.889648 218.438553 -26.200024
v -1.889648 218.438553 26.199970
v -54.289673 218.438553 26.199970
v -54.289673 254.038559 -26.200027
v -1.889648 254.038559 -26.200027
v -1.889648 254.038559 26.199966
v -54.289673 254.038559 26.199966
vn -0.0000 -0.0000 -1.0000
vn 1.0000 -0.0000 -0.0000
vn -0.0000 -0.0000 1.0000
vn -1.0000 -0.0000 -0.0000
vn -0.0000 1.0000 -0.0000
vn -0.0000 -1.0000 -0.0000
vn -0.0000 0.7442 -0.6679
vn 0.6679 0.7442 -0.0000
vn -0.0000 0.7442 0.6679
vn -0.6679 0.7442 -0.0000
vt 0.000000 0.000000
vt 0.000000 0.500000
vt 1.000000 0.500000
vt 1.000000 0.000000
vt 0.000000 1.000000
vt 1.000000 1.000000
vt 0.329427 0.329427
vt 0.329427 0.670573
vt 0.670573 0.670573
vt 0.670573 0.329427
vt 0.036458 0.036458
vt 0.963542 0.036458
vt 0.963542 0.963542
vt 0.036458 0.963542
s 0
usemtl default
f 13/1/1 14/2/1 16/3/1 15/4/1
f 2/2/1 3/5/1 6/6/1 5/3/1
f 15/1/2 16/2/2 18/3/2 17/4/2
f 5/2/2 6/5/2 9/6/2 8/3/2
f 17/1/3 18/2/3 20/3/3 19/4/3
f 8/2/3 9/5/3 12/6/3 11/3/3
f 19/1/4 20/2/4 14/3/4 13/4/4
f 11/2/4 12/5/4 3/6/4 2/3/4
f 37/7/5 40/8/5 39/9/5 38/10/5
f 10/1/6 1/5/6 4/6/6 7/4/6
f 1/1/6 13/1/6 15/4/6 4/4/6
f 5/3/5 16/3/5 14/2/5 2/2/5
f 4/1/6 15/1/6 17/4/6 7/4/6
f 8/3/5 18/3/5 16/2/5 5/2/5
f 7/1/6 17/1/6 19/4/6 10/4/6
f 11/3/5 20/3/5 18/2/5 8/2/5
f 10/1/6 19/1/6 13/4/6 1/4/6
f 2/3/5 14/3/5 20/2/5 11/2/5
f 3/1/7 21/1/7 22/4/7 6/4/7
f 6/4/8 22/4/8 23/6/8 9/6/8
f 9/6/9 23/6/9 24/5/9 12/5/9
f 12/5/10 24/5/10 21/1/10 3/1/10
f 21/1/5 25/11/5 26/12/5 22/4/5
f 22/4/5 26/12/5 27/13/5 23/6/5
f 23/6/5 27/13/5 28/14/5 24/5/5
f 24/5/5 28/14/5 25/11/5 21/1/5
f 25/11/3 29/11/3 30/12/3 26/12/3
f 26/12/4 30/12/4 31/13/4 27/13/4
f 27/13/1 31/13/1 32/14/1 28/14/1
f 28/14/2 32/14/2 29/11/2 25/11/2
f 29/11/5 33/7/5 34/10/5 30/12/5
f 30/12/5 34/10/5 35/9/5 31/13/5
f 31/13/5 35/9/5 36/8/5 32/14/5
f 32/14/5 36/8/5 33/7/5 29/11/5
f 33/7/1 37/7/1 38/10/1 34/10/1
f 34/10/2 38/10/2 39/9/2 35/9/2
f 35/9/3 39/9/3 40/8/3 36/8/3
f 36/8/4 40/8/4 37/7/4 33/7/4
